<?xml version="1.0" encoding="utf-8"?>
<!-- Generator: Adobe Illustrator 26.1.0, SVG Export Plug-In . SVG Version: 6.00 Build 0)  -->
<svg version="1.1" id="Layer_1" xmlns="http://www.w3.org/2000/svg" xmlns:xlink="http://www.w3.org/1999/xlink" x="0px" y="0px"
	 viewBox="0 0 20 20" style="enable-background:new 0 0 20 20;" xml:space="preserve">
<style type="text/css">
	.st0{fill:#FFFFFF;}
</style>
<g>
	<path class="st0" d="M12,13.8c0.2,0.1,0.3,0.1,0.5,0.2c0.1,0,0.3,0,0.6,0h0.2c0,0.5-0.2,1-0.6,1.3c-0.4,0.4-0.8,0.6-1.3,0.6h-8
		c-0.5,0-1-0.2-1.3-0.6C1.6,15,1.4,14.5,1.4,14v-0.5c0-0.8,0.3-1.5,0.9-2.1c0.4-0.4,0.9-0.7,1.5-0.8C3.4,9.9,3.1,9.1,3.1,8.3
		c0-0.8,0.2-1.5,0.6-2.1C4.1,5.5,4.6,5,5.2,4.6c0.7-0.4,1.4-0.6,2.1-0.6s1.5,0.2,2.1,0.6c0.7,0.4,1.2,0.9,1.6,1.5
		c0.4,0.6,0.6,1.3,0.6,2.1c0,0.8-0.2,1.6-0.7,2.3c0.2,0,0.4,0.1,0.6,0.2c-0.2,0.2-0.3,0.4-0.3,0.6c0,0.1-0.1,0.3-0.1,0.5V12
		c-0.3-0.1-0.6-0.2-0.8-0.2H9.8c-0.7,0.5-1.5,0.7-2.4,0.7S5.8,12.2,5,11.7H4.5c-0.5,0-0.9,0.2-1.2,0.5s-0.5,0.7-0.5,1.2v0.5
		c0,0.2,0.1,0.3,0.2,0.5s0.3,0.2,0.5,0.2h8c0.2,0,0.3-0.1,0.5-0.2s0.2-0.3,0.2-0.5v-0.2L12,13.8z M7.3,5.4c-0.5,0-1,0.1-1.5,0.4
		C5.4,6,5,6.4,4.8,6.8C4.5,7.3,4.4,7.8,4.4,8.3s0.1,1,0.4,1.5s0.6,0.8,1.1,1.1c0.4,0.3,0.9,0.4,1.5,0.4s1-0.1,1.5-0.4
		c0.4-0.3,0.8-0.6,1.1-1.1s0.4-0.9,0.4-1.5c0-0.5-0.1-1-0.4-1.5C9.6,6.4,9.3,6,8.8,5.8C8.4,5.5,7.9,5.4,7.3,5.4L7.3,5.4z M18.5,11.7
		c0-0.1,0-0.2-0.1-0.2c-0.1-0.1-0.1-0.1-0.2-0.1h-2v-2c0-0.1,0-0.2-0.1-0.2C16,9.1,16,9.1,15.9,9.1h-0.6c-0.1,0-0.2,0-0.2,0.1
		C15,9.2,15,9.3,15,9.4v2h-2c-0.1,0-0.2,0-0.2,0.1c-0.1,0.1-0.1,0.1-0.1,0.2v0.6c0,0.1,0,0.2,0.1,0.2c0.1,0.1,0.1,0.1,0.2,0.1h2v2
		c0,0.1,0,0.2,0.1,0.2c0.1,0.1,0.1,0.1,0.2,0.1h0.6c0.1,0,0.2,0,0.2-0.1c0.1-0.1,0.1-0.1,0.1-0.2v-2h2c0.1,0,0.2,0,0.2-0.1
		c0.1-0.1,0.1-0.1,0.1-0.2v-0.6L18.5,11.7z"/>
</g>
</svg>
