<?xml version="1.0" encoding="utf-8"?>
<!-- Generator: Adobe Illustrator 26.0.3, SVG Export Plug-In . SVG Version: 6.00 Build 0)  -->
<svg version="1.1" id="Layer_1" xmlns="http://www.w3.org/2000/svg" xmlns:xlink="http://www.w3.org/1999/xlink" x="0px" y="0px"
	 viewBox="0 0 20 20" style="enable-background:new 0 0 20 20;" xml:space="preserve">
<style type="text/css">
	.st0{fill:#FFFFFF;}
</style>
<path class="st0" d="M15.6,6.37v9.73c0,0.38-0.15,0.7-0.41,0.97s-0.59,0.41-0.97,0.41H5.78c-0.38,0-0.7-0.15-0.97-0.41
	S4.4,16.47,4.4,16.09V3.91c0-0.38,0.15-0.7,0.41-0.97S5.4,2.53,5.78,2.53h5.98c0.38,0,0.7,0.15,0.97,0.41l2.46,2.46
	C15.45,5.66,15.6,5.99,15.6,6.37z M5.75,16.09h8.44V7.66h-3.05c-0.21,0-0.38-0.06-0.53-0.21s-0.21-0.32-0.21-0.53V3.88H5.72v12.19
	L5.75,16.09z M12.49,11.82H7.57c-0.09,0-0.18,0.03-0.23,0.09c-0.09,0.09-0.12,0.18-0.12,0.26v0.82c0,0.09,0.03,0.18,0.09,0.23
	c0.06,0.09,0.15,0.12,0.23,0.12h4.92c0.09,0,0.18-0.03,0.23-0.09s0.09-0.15,0.09-0.23V12.2c0-0.09-0.03-0.18-0.09-0.23
	c-0.09-0.06-0.18-0.09-0.26-0.09L12.49,11.82z M12.9,9.65v0.82c0,0.09-0.03,0.18-0.09,0.23c-0.09,0.09-0.18,0.12-0.26,0.12H7.63
	c-0.09,0-0.18-0.03-0.23-0.09c-0.09-0.06-0.12-0.15-0.12-0.23V9.68c0-0.09,0.03-0.18,0.09-0.23S7.51,9.36,7.6,9.36h4.92
	c0.09,0,0.18,0.03,0.23,0.09c0.06,0.09,0.09,0.18,0.09,0.26L12.9,9.65z M14.07,6.25l-2.23-2.23v2.23H14.07z"/>
<g>
</g>
<g>
</g>
<g>
</g>
<g>
</g>
<g>
</g>
<g>
</g>
<g>
</g>
<g>
</g>
<g>
</g>
<g>
</g>
<g>
</g>
<g>
</g>
<g>
</g>
<g>
</g>
<g>
</g>
</svg>
