<?xml version="1.0" encoding="utf-8"?>
<!-- Generator: Adobe Illustrator 26.0.3, SVG Export Plug-In . SVG Version: 6.00 Build 0)  -->
<svg version="1.1" id="Layer_1" xmlns="http://www.w3.org/2000/svg" xmlns:xlink="http://www.w3.org/1999/xlink" x="0px" y="0px"
	 viewBox="0 0 20 20" style="enable-background:new 0 0 20 20;" xml:space="preserve">
<style type="text/css">
	.st0{fill:#FFFFFF;}
</style>
<path class="st0" d="M17.57,9.38c0.06,0.03,0.09,0.09,0.09,0.15S17.63,9.64,17.6,9.7l-0.59,0.73c-0.03,0.03-0.09,0.06-0.15,0.06
	s-0.12,0-0.15-0.03l-0.44-0.35v5.8c0,0.15-0.03,0.26-0.12,0.35s-0.21,0.15-0.35,0.15h-4.92c-0.06,0-0.12-0.03-0.15-0.09
	c-0.06-0.06-0.09-0.12-0.09-0.18V12.4H8.78v3.75c0,0.06-0.03,0.12-0.06,0.15c-0.06,0.06-0.12,0.09-0.18,0.09H3.62
	c-0.15,0-0.26-0.06-0.35-0.15s-0.15-0.21-0.15-0.35v-5.8l-0.44,0.35c-0.03,0.03-0.09,0.03-0.15,0c-0.06,0-0.12-0.03-0.15-0.06
	L1.81,9.64C1.78,9.59,1.75,9.53,1.75,9.47s0.03-0.12,0.09-0.15l7.15-5.86C9.19,3.29,9.42,3.2,9.69,3.2s0.5,0.09,0.7,0.26l4.42,3.6
	V5.31c0-0.06,0.03-0.12,0.09-0.18s0.12-0.09,0.18-0.09h0.94c0.06,0,0.12,0.03,0.18,0.06c0.06,0.06,0.09,0.12,0.09,0.18v2.93
	l1.32,1.08L17.57,9.38z M14.75,8.97l-5.01-4.1c-0.09-0.09-0.18-0.09-0.26,0l-5.01,4.1v6.04h2.81v-3.75c0-0.06,0.03-0.12,0.09-0.18
	s0.12-0.09,0.18-0.09h4.22c0.06,0,0.12,0.03,0.18,0.06c0.06,0.06,0.09,0.12,0.09,0.18v3.75h2.81V8.94L14.75,8.97z"/>
<g>
</g>
<g>
</g>
<g>
</g>
<g>
</g>
<g>
</g>
<g>
</g>
<g>
</g>
<g>
</g>
<g>
</g>
<g>
</g>
<g>
</g>
<g>
</g>
<g>
</g>
<g>
</g>
<g>
</g>
</svg>
