<?xml version="1.0" encoding="utf-8"?>
<!-- Generator: Adobe Illustrator 26.0.3, SVG Export Plug-In . SVG Version: 6.00 Build 0)  -->
<svg version="1.1" id="Layer_1" xmlns="http://www.w3.org/2000/svg" xmlns:xlink="http://www.w3.org/1999/xlink" x="0px" y="0px"
	 viewBox="0 0 20 20" style="enable-background:new 0 0 20 20;" xml:space="preserve">
<style type="text/css">
	.st0{fill:#FFFFFF;}
</style>
<path class="st0" d="M17.06,3.88c0.26,0.26,0.41,0.59,0.41,0.97v10.31c0,0.38-0.15,0.7-0.41,0.97s-0.59,0.41-0.97,0.41H3.91
	c-0.38,0-0.7-0.15-0.97-0.41s-0.41-0.59-0.41-0.97V4.84c0-0.38,0.15-0.7,0.41-0.97s0.59-0.41,0.97-0.41h12.19
	C16.47,3.47,16.8,3.61,17.06,3.88z M3.85,5.99c0,0.09,0.03,0.18,0.12,0.23C4.02,6.28,4.11,6.31,4.2,6.31h1.17
	c0.09,0,0.18-0.03,0.26-0.12c0.06-0.06,0.09-0.15,0.09-0.23v-0.7c0-0.09-0.03-0.18-0.09-0.26C5.58,4.93,5.49,4.9,5.4,4.9H4.23
	c-0.09,0-0.18,0.03-0.23,0.09S3.91,5.14,3.91,5.22v0.7L3.85,5.99z M16.09,7.51H3.91v7.56c0,0.03,0.03,0.06,0.06,0.09
	s0.06,0.06,0.09,0.06h11.84c0.03,0,0.06-0.03,0.09-0.06s0.06-0.06,0.06-0.09V7.51H16.09z M16.04,5.34c0-0.09-0.03-0.18-0.09-0.26
	c-0.06-0.06-0.15-0.09-0.23-0.09h-8.2c-0.09,0-0.18,0.03-0.23,0.09S7.19,5.22,7.19,5.31v0.7c0,0.09,0.03,0.18,0.12,0.23
	c0.06,0.06,0.15,0.09,0.23,0.09h8.2c0.09,0,0.18-0.03,0.26-0.12c0.06-0.06,0.09-0.15,0.09-0.23v-0.7L16.04,5.34z"/>
<g>
</g>
<g>
</g>
<g>
</g>
<g>
</g>
<g>
</g>
<g>
</g>
<g>
</g>
<g>
</g>
<g>
</g>
<g>
</g>
<g>
</g>
<g>
</g>
<g>
</g>
<g>
</g>
<g>
</g>
</svg>
