<?xml version="1.0" encoding="utf-8"?>
<!-- Generator: Adobe Illustrator 26.0.3, SVG Export Plug-In . SVG Version: 6.00 Build 0)  -->
<svg version="1.1" id="Layer_1" xmlns="http://www.w3.org/2000/svg" xmlns:xlink="http://www.w3.org/1999/xlink" x="0px" y="0px"
	 viewBox="0 0 20 20" style="enable-background:new 0 0 20 20;" xml:space="preserve">
<style type="text/css">
	.st0{fill:#FFFFFF;}
</style>
<path class="st0" d="M4.5,16.12c-0.56-0.56-0.94-1.2-1.14-1.96c-0.21-0.73-0.21-1.46,0-2.2s0.59-1.38,1.14-1.93l6.59-6.62
	C11.5,2.99,12,2.7,12.59,2.55c0.56-0.15,1.14-0.15,1.73,0c0.56,0.15,1.05,0.44,1.49,0.85c0.44,0.44,0.73,0.94,0.88,1.52
	s0.15,1.17,0,1.76s-0.44,1.08-0.88,1.52l-5.54,5.57c-0.47,0.44-1.03,0.67-1.67,0.67s-1.2-0.23-1.67-0.7c-0.47-0.44-0.7-1-0.7-1.64
	s0.23-1.2,0.7-1.67l4.72-4.72c0.06-0.06,0.15-0.09,0.23-0.09s0.18,0.03,0.23,0.09l0.5,0.5c0.09,0.09,0.12,0.18,0.12,0.26
	s-0.03,0.18-0.12,0.23l-4.69,4.72c-0.21,0.18-0.29,0.38-0.29,0.64s0.09,0.5,0.29,0.67c0.21,0.21,0.44,0.29,0.7,0.29
	s0.47-0.09,0.64-0.26l5.57-5.57c0.38-0.38,0.56-0.85,0.56-1.38s-0.18-1-0.56-1.38S13.99,3.9,13.46,3.9c-0.56,0-1.03,0.18-1.41,0.56
	l-6.59,6.59c-0.56,0.59-0.85,1.29-0.85,2.11s0.29,1.52,0.88,2.11c0.56,0.59,1.23,0.88,2.05,0.88c0.79,0,1.49-0.29,2.08-0.88
	l5.71-5.74c0.09-0.06,0.18-0.09,0.26-0.09s0.18,0.03,0.23,0.09l0.5,0.5c0.09,0.09,0.12,0.18,0.12,0.26s-0.03,0.18-0.12,0.23
	l-5.71,5.74c-0.56,0.56-1.2,0.94-1.93,1.14s-1.46,0.21-2.23,0s-1.41-0.59-1.96-1.14V16.12z"/>
<g>
</g>
<g>
</g>
<g>
</g>
<g>
</g>
<g>
</g>
<g>
</g>
<g>
</g>
<g>
</g>
<g>
</g>
<g>
</g>
<g>
</g>
<g>
</g>
<g>
</g>
<g>
</g>
<g>
</g>
</svg>
