<?xml version="1.0" encoding="utf-8"?>
<!-- Generator: Adobe Illustrator 26.0.3, SVG Export Plug-In . SVG Version: 6.00 Build 0)  -->
<svg version="1.1" id="Layer_1" xmlns="http://www.w3.org/2000/svg" xmlns:xlink="http://www.w3.org/1999/xlink" x="0px" y="0px"
	 viewBox="0 0 20 20" style="enable-background:new 0 0 20 20;" xml:space="preserve">
<style type="text/css">
	.st0{fill:#FFFFFF;}
</style>
<path class="st0" d="M17.72,4.35c0.21,0,0.38,0.06,0.53,0.21s0.21,0.32,0.21,0.53v9.84c0,0.21-0.06,0.38-0.21,0.53
	s-0.32,0.21-0.53,0.21H3.19c-0.44,0-0.82-0.18-1.14-0.5s-0.5-0.7-0.5-1.14V6.04c0-0.21,0.06-0.38,0.21-0.53s0.32-0.21,0.53-0.21
	h1.26c0.09-0.26,0.26-0.5,0.53-0.67c0.23-0.18,0.5-0.26,0.79-0.26h12.89L17.72,4.35z M2.9,13.98c0,0.06,0.03,0.12,0.09,0.15
	c0.06,0.06,0.12,0.09,0.18,0.09s0.12-0.03,0.18-0.09s0.09-0.12,0.09-0.18V6.69H2.95v7.27L2.9,13.98z M4.77,5.78v8.2l-0.03,0.23
	h12.22V5.78H4.77z M6.06,12.58c0,0.09,0.03,0.18,0.12,0.23c0.06,0.06,0.15,0.09,0.23,0.09h3.98c0.09,0,0.18-0.03,0.26-0.12
	c0.06-0.06,0.09-0.15,0.09-0.23v-0.7c0-0.09-0.03-0.18-0.09-0.26c-0.06-0.06-0.15-0.09-0.23-0.09H6.44c-0.09,0-0.18,0.03-0.23,0.09
	s-0.09,0.15-0.09,0.23v0.7L6.06,12.58z M6.47,10.76c-0.09,0-0.18-0.03-0.23-0.12c-0.06-0.06-0.09-0.15-0.09-0.23V7.6
	c0-0.09,0.03-0.18,0.12-0.26C6.32,7.28,6.41,7.25,6.5,7.25h3.98c0.09,0,0.18,0.03,0.26,0.09c0.06,0.06,0.09,0.15,0.09,0.23v2.81
	c0,0.09-0.03,0.18-0.09,0.23s-0.15,0.09-0.23,0.09H6.53L6.47,10.76z M9.63,9.59V8.42H7.29v1.17H9.63z M11.51,10.64
	c0,0.09,0.03,0.18,0.12,0.23c0.06,0.06,0.15,0.09,0.23,0.09h3.05c0.09,0,0.18-0.03,0.26-0.12c0.06-0.06,0.09-0.15,0.09-0.23v-0.7
	c0-0.09-0.03-0.18-0.09-0.26c-0.06-0.06-0.15-0.09-0.23-0.09h-3.05c-0.09,0-0.18,0.03-0.23,0.09s-0.09,0.15-0.09,0.23v0.7
	L11.51,10.64z M11.57,8.48c0,0.09,0.03,0.18,0.12,0.23c0.06,0.06,0.15,0.09,0.23,0.09h3.05c0.09,0,0.18-0.03,0.26-0.12
	c0.06-0.06,0.09-0.15,0.09-0.23v-0.7c0-0.09-0.03-0.18-0.09-0.26C15.17,7.42,15.08,7.39,15,7.39h-3.05c-0.09,0-0.18,0.03-0.23,0.09
	s-0.09,0.15-0.09,0.23v0.7L11.57,8.48z M11.63,12.64c0,0.09,0.03,0.18,0.12,0.23c0.06,0.06,0.15,0.09,0.23,0.09h3.05
	c0.09,0,0.18-0.03,0.26-0.12c0.06-0.06,0.09-0.15,0.09-0.23v-0.7c0-0.09-0.03-0.18-0.09-0.26c-0.06-0.06-0.15-0.09-0.23-0.09h-3.05
	c-0.09,0-0.18,0.03-0.23,0.09s-0.09,0.15-0.09,0.23v0.7L11.63,12.64z"/>
<g>
</g>
<g>
</g>
<g>
</g>
<g>
</g>
<g>
</g>
<g>
</g>
<g>
</g>
<g>
</g>
<g>
</g>
<g>
</g>
<g>
</g>
<g>
</g>
<g>
</g>
<g>
</g>
<g>
</g>
</svg>
